<svg fill="#000000" xmlns="http://www.w3.org/2000/svg" viewBox="0 0 50 50" width="150px" height="150px"><path d="M 25 3 C 24.088 3 22.337438 3.1897813 20.898438 4.4257812 C 20.892339 4.4303829 20.852211 4.4657189 20.845703 4.4707031 C 20.395926 4.8125543 19.401587 5.6870478 17.986328 6.9140625 L 17.886719 7 L 11 7 C 10.447 7 10 7.447 10 8 L 10 13.962891 C 6.561 17.002891 3.6413281 19.603516 3.3613281 19.853516 L 12 26.583984 L 12 9 L 17.988281 9 A 1.0001 1.0001 0 0 0 18.462891 9 L 31.513672 9 A 1.0001 1.0001 0 0 0 31.859375 9 L 38 9 L 38 26.583984 L 46.638672 19.853516 C 46.357672 19.603516 43.439 17.002891 40 13.962891 L 40 8 C 40 7.447 39.553 7 39 7 L 32.056641 7 C 31.889251 6.8497223 31.735461 6.7174156 31.566406 6.5664062 C 30.429946 5.5480509 29.550023 4.7702444 29.150391 4.4667969 C 29.147127 4.4639983 29.143891 4.4617725 29.140625 4.4589844 C 29.107784 4.43096 29.074078 4.4097946 29.041016 4.3828125 C 28.887361 4.257439 28.731649 4.1372055 28.574219 4.0332031 C 28.384468 3.9075287 28.193105 3.7968349 28.001953 3.6992188 C 28.001953 3.6992188 28 3.6972656 28 3.6972656 C 28 3.6972656 27.998047 3.6972656 27.998047 3.6972656 C 27.61294 3.5016788 27.229847 3.356974 26.863281 3.2539062 C 26.493442 3.1497511 26.142519 3.0864962 25.824219 3.0488281 C 25.508563 3.0110781 25.228 3 25 3 z M 16 14 A 1.0001 1.0001 0 1 0 16 16 L 34 16 A 1.0001 1.0001 0 1 0 34 14 L 16 14 z M 16 19 A 1.0001 1.0001 0 1 0 16 21 L 27 21 A 1.0001 1.0001 0 1 0 27 19 L 16 19 z M 3 22.134766 L 3 41.136719 C 3.08 41.075719 3.153375 41.016125 3.234375 40.953125 C 6.708375 38.251125 11.477266 34.542297 15.197266 31.654297 L 3 22.134766 z M 47 22.134766 L 34.740234 31.703125 C 38.388234 34.582125 43.15 38.336187 47 41.367188 L 47 22.134766 z M 25 27.822266 C 24.749 27.822266 23.432797 27.872516 22.091797 28.853516 C 21.172797 29.532516 10.302891 37.990203 4.4628906 42.533203 C 3.9108906 42.962203 3.43 43.337922 3 43.669922 L 3 46 C 3 46.553 3.447 47 4 47 L 46 47 C 46.553 47 47 46.553 47 46 L 47 43.912109 C 39.971 38.380109 28.657 29.456125 27.875 28.828125 C 26.781 27.954125 25.604 27.822266 25 27.822266 z"/></svg>