<svg id="Grupo_122" data-name="Grupo 122" xmlns="http://www.w3.org/2000/svg" width="24" height="24" viewBox="0 0 24 24">
  <path id="Caminho_57" data-name="Caminho 57" d="M0,0H24V24H0Z" fill="none"/>
  <path id="Caminho_58" data-name="Caminho 58" d="M9,19c-4.3,1.4-4.3-2.5-6-3m12,5V17.5c0-1,.1-1.4-.5-2,2.8-.3,5.5-1.4,5.5-6a4.6,4.6,0,0,0-1.3-3.2,4.2,4.2,0,0,0-.1-3.2s-1.1-.3-3.5,1.3a12.3,12.3,0,0,0-6.2,0C6.5,2.8,5.4,3.1,5.4,3.1a4.2,4.2,0,0,0-.1,3.2A4.6,4.6,0,0,0,4,9.5c0,4.6,2.7,5.7,5.5,6a2.083,2.083,0,0,0-.5,2V21" fill="none" stroke="#fff" stroke-linecap="round" stroke-linejoin="round" stroke-width="1.5"/>
</svg>
