<svg xmlns="http://www.w3.org/2000/svg" viewBox="0 0 100 100" width="200px" height="200px"><path fill="#f1bc19" d="M77 12A1 1 0 1 0 77 14A1 1 0 1 0 77 12Z"/><path fill="#e6edb7" d="M50 13A37 37 0 1 0 50 87A37 37 0 1 0 50 13Z"/><path fill="#f1bc19" d="M83 11A4 4 0 1 0 83 19A4 4 0 1 0 83 11Z"/><path fill="#88ae45" d="M87 22A2 2 0 1 0 87 26A2 2 0 1 0 87 22Z"/><path fill="#fbcd59" d="M81 74A2 2 0 1 0 81 78 2 2 0 1 0 81 74zM15 59A4 4 0 1 0 15 67 4 4 0 1 0 15 59z"/><path fill="#88ae45" d="M25 85A2 2 0 1 0 25 89A2 2 0 1 0 25 85Z"/><path fill="#fff" d="M18.5 49A2.5 2.5 0 1 0 18.5 54 2.5 2.5 0 1 0 18.5 49zM79.5 32A1.5 1.5 0 1 0 79.5 35 1.5 1.5 0 1 0 79.5 32z"/><path fill="#fff" d="M80 33A1 1 0 1 0 80 35A1 1 0 1 0 80 33Z"/><path fill="#78a0cf" d="M74,40v20c0,1.91-0.89,3.61-2.28,4.71C70.7,65.52,69.41,66,68,66H32c-1.41,0-2.71-0.48-3.73-1.31 C26.89,63.6,26,61.9,26,60V40c0-2.06,1.05-3.89,2.64-4.95c0.05-0.05,0.11-0.09,0.16-0.12C29.72,34.34,30.82,34,32,34h36 c1.18,0,2.28,0.34,3.2,0.93c0.05,0.03,0.11,0.07,0.16,0.12C72.95,36.11,74,37.94,74,40z"/><path fill="#457faf" d="M71.72,64.71C70.7,65.52,69.41,66,68,66H32c-1.41,0-2.71-0.48-3.73-1.31L50,45.95L71.72,64.71z"/><path fill="#c5def0" d="M71.36,35.05L50,52.62L28.64,35.05c0.05-0.05,0.11-0.09,0.16-0.12C29.72,34.34,30.82,34,32,34h36 c1.18,0,2.28,0.34,3.2,0.93C71.25,34.96,71.31,35,71.36,35.05z"/><path fill="#472b29" d="M50 53c-.084 0-.169-.028-.238-.085L28.546 35.467c-.16-.131-.183-.368-.051-.528s.369-.183.528-.051L50 52.14l20.978-17.251c.159-.132.395-.109.528.051.132.16.108.396-.051.528L50.238 52.915C50.169 52.972 50.084 53 50 53zM28.226 65.131c-.105 0-.209-.044-.284-.13-.135-.157-.118-.394.039-.529l14.296-12.388c.155-.137.394-.121.529.036.136.156.121.393-.036.529l-3.727 3.255L28.471 65.04C28.4 65.102 28.313 65.131 28.226 65.131z"/><path fill="#472b29" d="M68,34.4c3.088,0,5.6,2.512,5.6,5.6v20c0,3.088-2.512,5.6-5.6,5.6H32c-3.088,0-5.6-2.512-5.6-5.6V40 c0-3.088,2.512-5.6,5.6-5.6H68L68,34.4z M68,33H32c-3.866,0-7,3.134-7,7v20c0,3.866,3.134,7,7,7h36c3.866,0,7-3.134,7-7V40 C75,36.134,71.866,33,68,33L68,33z"/><path fill="#472b29" d="M71.774,65.131c-0.087,0-0.175-0.03-0.246-0.092L57.239,52.65c-0.157-0.136-0.173-0.373-0.038-0.529 s0.373-0.172,0.529-0.038l14.29,12.389c0.157,0.136,0.173,0.373,0.038,0.529C71.983,65.087,71.879,65.131,71.774,65.131z"/><path fill="#e1e0d8" d="M70.5,21.5c7.168,0,13,4.486,13,10s-5.832,10-13,10c-0.468,0-0.965-0.024-1.52-0.074l-0.202-0.018 l-0.158,0.128C66.231,43.475,63.941,44.5,62,44.5c-0.276,0-0.5-0.224-0.5-0.5c0-0.066,0.016-0.132,0.042-0.19l0.174-0.358 c0.588-1.121,0.962-2.314,1.111-3.547l0.039-0.324l-0.281-0.166C59.353,37.498,57.5,34.613,57.5,31.5 C57.5,25.986,63.332,21.5,70.5,21.5L70.5,21.5z"/><path fill="#472b29" d="M70.5,22c6.893,0,12.5,4.262,12.5,9.5S77.393,41,70.5,41c-0.453,0-0.935-0.024-1.475-0.072 l-0.404-0.036l-0.315,0.256c-2.3,1.866-4.48,2.853-6.314,2.881l0.167-0.344c0.616-1.174,1.008-2.426,1.165-3.719l0.079-0.648 l-0.561-0.333C59.764,37.16,58,34.432,58,31.5C58,26.262,63.607,22,70.5,22 M70.5,21C63.044,21,57,25.701,57,31.5 c0,3.407,2.096,6.427,5.33,8.345c-0.107,0.886-0.383,2.089-1.057,3.375l-0.181,0.372C61.035,43.717,61,43.853,61,44 c0,0.552,0.448,1,1,1c1.268,0,3.624-0.388,6.936-3.076C69.45,41.97,69.97,42,70.5,42C77.956,42,84,37.299,84,31.5S77.956,21,70.5,21 L70.5,21z"/><path fill="#472b29" d="M71.75 27.5h-8.5c-.138 0-.25-.112-.25-.25S63.112 27 63.25 27h8.5c.138 0 .25.112.25.25S71.888 27.5 71.75 27.5zM76.75 27.5h-3.5c-.138 0-.25-.112-.25-.25S73.112 27 73.25 27h3.5c.138 0 .25.112.25.25S76.888 27.5 76.75 27.5zM66.75 30h-4.5C62.112 30 62 29.888 62 29.75s.112-.25.25-.25h4.5c.138 0 .25.112.25.25S66.888 30 66.75 30zM78.75 30h-10.5C68.112 30 68 29.888 68 29.75s.112-.25.25-.25h10.5c.138 0 .25.112.25.25S78.888 30 78.75 30zM74.75 32.5h-12.5c-.138 0-.25-.112-.25-.25S62.112 32 62.25 32h12.5c.138 0 .25.112.25.25S74.888 32.5 74.75 32.5zM70.75 35h-7.5C63.112 35 63 34.888 63 34.75s.112-.25.25-.25h7.5c.138 0 .25.112.25.25S70.888 35 70.75 35z"/><path fill="#f1bc19" d="M77.5 33.5A5 5 0 1 0 77.5 43.5A5 5 0 1 0 77.5 33.5Z"/><path fill="#472b29" d="M77.5,34c2.481,0,4.5,2.019,4.5,4.5S79.981,43,77.5,43S73,40.981,73,38.5S75.019,34,77.5,34 M77.5,33 c-3.038,0-5.5,2.462-5.5,5.5s2.462,5.5,5.5,5.5s5.5-2.462,5.5-5.5S80.538,33,77.5,33L77.5,33z"/><g><path fill="#472b29" d="M78.784,37.286l-0.189,1.577c-0.008,0.058-0.014,0.114-0.017,0.167 c-0.003,0.053-0.005,0.103-0.005,0.149c0,0.15,0.062,0.225,0.186,0.225c0.174,0,0.332-0.123,0.475-0.369 c0.14-0.242,0.21-0.519,0.21-0.829c0-0.493-0.172-0.896-0.517-1.21c-0.342-0.318-0.78-0.478-1.313-0.478 c-0.557,0-1.025,0.19-1.406,0.571c-0.378,0.378-0.568,0.847-0.568,1.406c0,0.308,0.068,0.611,0.204,0.907 c0.138,0.278,0.331,0.508,0.58,0.688c0.332,0.24,0.749,0.36,1.249,0.36c0.469,0,0.959-0.119,1.472-0.357l0.045-0.024l0.156,0.433 l-0.036,0.018c-0.523,0.252-1.067,0.378-1.634,0.378c-0.627,0-1.151-0.151-1.574-0.454c-0.31-0.22-0.553-0.502-0.727-0.844 c-0.172-0.36-0.258-0.727-0.258-1.099c0-0.679,0.239-1.248,0.718-1.709c0.479-0.461,1.069-0.691,1.772-0.691 c0.647,0,1.188,0.198,1.625,0.595c0.435,0.392,0.652,0.884,0.652,1.475c0,0.457-0.118,0.848-0.354,1.174 c-0.238,0.33-0.518,0.496-0.838,0.496c-0.256,0-0.431-0.121-0.523-0.363c-0.246,0.252-0.521,0.378-0.823,0.378 c-0.33,0-0.606-0.119-0.826-0.357c-0.216-0.236-0.324-0.538-0.324-0.904c0-0.394,0.121-0.719,0.363-0.973 c0.242-0.26,0.547-0.39,0.913-0.39c0.336,0,0.608,0.13,0.814,0.39l0.042-0.333h0.456V37.286z M78.171,38.446 c0-0.186-0.063-0.341-0.189-0.466c-0.13-0.124-0.288-0.186-0.475-0.186c-0.202,0-0.367,0.078-0.496,0.234 c-0.13,0.154-0.195,0.351-0.195,0.592c0,0.208,0.052,0.379,0.156,0.514c0.104,0.134,0.238,0.201,0.402,0.201 c0.21,0,0.395-0.089,0.556-0.267C78.09,38.889,78.171,38.682,78.171,38.446z"/></g></svg>