<svg width="97" height="75" viewBox="0 0 97 75" fill="none" xmlns="http://www.w3.org/2000/svg">
<path d="M6.05431 12.1031L21.106 0L35.2327 12.2712L33.4669 16.4736L20.9378 10.5062L7.39972 15.0448L6.05431 12.1031ZM0 18.743H40.1939L34.56 70.7694L5.21344 72.7866L0 18.743ZM13.9585 63.0369L27.9171 60.9357L31.5328 29.3332L9.33373 30.9301L13.9585 63.0369ZM57.5869 40.2596L56.9983 74.7198L48.5054 74.3836L52.2053 40.1755L57.5869 40.2596ZM58.7641 35.889H51.8689L51.4485 27.8203L59.4368 28.3246L58.7641 35.889ZM96.6666 67.4075L96.9188 67.4915L96.4984 72.7866L91.5372 72.6185L62.4429 73.375L62.1066 50.4295L83.2966 51.8584V44.8823L68.7495 45.4706L68.3291 39.7553L89.4351 35.805L92.7985 65.8946L96.6666 67.4075ZM83.2966 58.1621H69.0858L70.2631 67.2394L82.708 67.6596L83.2966 58.1621Z" fill="black"/>
</svg>
