<svg id="Layer_5" enable-background="new 0 0 64 64" height="512" viewBox="0 0 64 64" width="512" xmlns="http://www.w3.org/2000/svg"><circle cx="26" cy="32" r="1"/><path d="m26 20c-6.617 0-12 5.383-12 12s5.383 12 12 12 12-5.383 12-12-5.383-12-12-12zm-9.286 8.281 1.857.742c-.22.551-.379 1.126-.472 1.709l-1.976-.314c.118-.73.316-1.448.591-2.137zm-.694 4.349 1.996-.123c.037.591.14 1.179.306 1.746l-1.919.562c-.209-.709-.337-1.444-.383-2.185zm2.527 6.037c-.493-.551-.926-1.158-1.287-1.805l1.747-.974c.289.518.635 1.003 1.03 1.445zm11.746-.96-3.008-3.008c-.391.188-.823.301-1.285.301-1.654 0-3-1.346-3-3 0-1.302.839-2.402 2-2.816v-7.184h2v7.184c1.161.414 2 1.514 2 2.816 0 .462-.113.894-.301 1.285l3.008 3.008z"/><path d="m60.399 48-7.399-5.919v3.919h-27c-7.72 0-14-6.28-14-14s6.28-14 14-14 14 6.28 14 14c0 5.096-2.745 9.551-6.826 12h6.228c2.117-2.363 3.577-5.229 4.22-8.324l.126-.609 3.252-.841v-4.447l-3.246-.821-.127-.614c-.456-2.208-1.325-4.298-2.583-6.212l-.344-.525 1.72-2.886-3.142-3.142-2.886 1.721-.523-.344c-1.914-1.258-4.004-2.127-6.212-2.583l-.614-.127-.821-3.246h-4.443l-.821 3.246-.614.127c-2.208.456-4.298 1.325-6.212 2.583l-.524.344-2.886-1.721-3.142 3.143 1.72 2.886-.344.523c-1.258 1.914-2.127 4.004-2.583 6.212l-.127.614-3.246.821v4.445l3.248.83.127.612c1.718 8.306 9.13 14.335 17.625 14.335h27v3.919z"/><path d="m3 46v4h14.347c-2.081-1.006-3.968-2.362-5.585-4z"/></svg>