<svg id="Layer_1_1_" enable-background="new 0 0 64 64" height="512" viewBox="0 0 64 64" width="512" xmlns="http://www.w3.org/2000/svg"><path d="m41.08899 11.73285c-.05274.41595-.08899.83691-.08899 1.26715s.03625.85126.08899 1.26715l2.21881.91016c.17151.60681.4093 1.18488.71118 1.72388l-.92316 2.20874c.52008.67181 1.12231 1.27399 1.79407 1.79413l2.2088-.9231c.539.30188 1.11707.53961 1.72394.71118l.91022 2.21887c.41595.05274.83691.08899 1.26715.08899s.8512-.03625 1.26715-.08899l.91022-2.21887c.60681-.17145 1.18488-.40918 1.72388-.71112l2.20874.92316c.67181-.52014 1.27405-1.12231 1.79413-1.79413l-.92316-2.2088c.30194-.539.53967-1.11707.71118-1.72388l2.21887-.91022c.05274-.41595.08899-.83691.08899-1.26715s-.03625-.8512-.08899-1.26715l-2.21887-.91022c-.17145-.60681-.40918-1.18488-.71112-1.72388l.92316-2.20874c-.52008-.67181-1.12231-1.27399-1.79413-1.79407l-2.20874.9231c-.539-.30194-1.11713-.53967-1.72394-.71118l-.91022-2.21887c-.41595-.05274-.83691-.08899-1.26715-.08899s-.8512.03625-1.26715.08899l-.91022 2.21887c-.60681.17145-1.18488.40924-1.72388.71112l-2.20868-.92316c-.67181.52008-1.27405 1.12225-1.79419 1.79407l.92316 2.20886c-.30194.539-.53967 1.11707-.71118 1.72388zm9.91101-2.73285c2.20917 0 4 1.79083 4 4 0 2.20911-1.79083 4-4 4s-4-1.79089-4-4c0-2.20917 1.79083-4 4-4z"/><path d="m20.11035 23.0954-.73236 3.1377c-1.03778.17151-2.03973.44147-2.99994.80249l-2.19244-2.34076c-1.1571.52344-2.24915 1.15948-3.26868 1.89398l.92706 3.04877c-.80493.66205-1.54401 1.40094-2.20605 2.20587l-3.04871-.92706c-.73468 1.01953-1.37073 2.11169-1.89423 3.2688l2.3407 2.19257c-.36108.96027-.6311 1.96228-.80261 3.00012l-3.1377.73242c-.06139.62182-.09539 1.2517-.09539 1.8897 0 .63794.034 1.26782.0954 1.88959l3.1377.73236c.17151 1.03778.44147 2.03979.80249 3l-2.34076 2.19244c.52344 1.1571 1.15948 2.24915 1.89398 3.26868l3.04877-.927c.66211.80493 1.401 1.54388 2.20593 2.20599l-.92706 3.04877c1.01953.73462 2.11163 1.37061 3.26874 1.8941l2.19257-2.34064c.96027.36108 1.96228.6311 3.00012.80261l.73242 3.1377c.62182.0614 1.2517.0954 1.8897.0954.63794 0 1.26788-.034 1.88965-.0954l.73236-3.1377c1.03778-.17151 2.03973-.44147 2.99994-.80249l2.1925 2.34076c1.1571-.52344 2.24915-1.15948 3.26862-1.89404l-.927-3.04871c.80493-.66211 1.54388-1.401 2.20599-2.20593l3.04877.92706c.73462-1.01959 1.37067-2.11169 1.89417-3.2688l-2.34064-2.19257c.36102-.96027.63104-1.96222.80255-3.00006l3.1377-.73242c.06139-.62182.09539-1.25176.09539-1.8897s-.034-1.26788-.0954-1.88965l-3.1377-.73236c-.17151-1.03778-.44147-2.03973-.80249-2.99994l2.34076-2.1925c-.52344-1.1571-1.15948-2.24915-1.89404-3.26862l-3.04871.927c-.66211-.80493-1.401-1.54388-2.20593-2.20599l.92706-3.04877c-1.01953-.73462-2.11163-1.37073-3.26874-1.89417l-2.19257 2.3407c-.96027-.36108-1.96228-.6311-3.00012-.80261l-.73242-3.1377c-.62182-.06139-1.2517-.09539-1.8897-.09539-.63794 0-1.26788.034-1.88965.0954zm12.88965 18.9046c0 6.07513-4.92487 11-11 11s-11-4.92487-11-11 4.92487-11 11-11 11 4.92487 11 11z"/><path d="m36.549 6.301h3.001v2h-3.001z" transform="matrix(.832 -.555 .555 .832 2.338 22.326)"/><path d="m32.389 9.074h3v2h-3z" transform="matrix(.832 -.555 .555 .832 .103 20.49)"/><path d="m28.229 11.848h3v2h-3z" transform="matrix(.832 -.555 .555 .832 -2.134 18.648)"/><path d="m19.908 17.395h3v2h-3z" transform="matrix(.832 -.555 .555 .832 -6.608 14.964)"/><path d="m15.748 20.168h3v2h-3z" transform="matrix(.832 -.555 .555 .832 -8.845 13.123)"/><path d="m24.068 14.621h3v2h-3z" transform="matrix(.832 -.555 .555 .832 -4.371 16.806)"/><path d="m46.416 38.139h3v2h-3z" transform="matrix(.515 -.857 .857 .515 -10.301 60.08)"/><path d="m48.989 33.852h3v2h-3z" transform="matrix(.515 -.857 .857 .515 -5.376 60.205)"/><path d="m41.272 46.714h3v2h-3z" transform="matrix(.515 -.857 .857 .515 -20.15 59.831)"/><path d="m43.844 42.426h3.001v2h-3.001z" transform="matrix(.515 -.857 .857 .515 -15.226 59.956)"/><path d="m54.134 25.276h3v2h-3z" transform="matrix(.515 -.857 .857 .515 4.473 60.455)"/><path d="m51.561 29.564h3v2h-3z" transform="matrix(.515 -.857 .857 .515 -.452 60.33)"/></svg>